<?xml version="1.0" encoding="utf-8"?>
<!-- Generator: Adobe Illustrator 21.1.0, SVG Export Plug-In . SVG Version: 6.00 Build 0)  -->
<svg version="1.1" id="Layer_1" xmlns="http://www.w3.org/2000/svg" xmlns:xlink="http://www.w3.org/1999/xlink" x="0px" y="0px"
	 viewBox="0 0 489.5 182.6" style="enable-background:new 0 0 489.5 182.6;" xml:space="preserve">
<style type="text/css">
	.st0{fill:url(#SVGID_1_);}
	.st1{fill:url(#SVGID_2_);}
	.st2{fill:#1A1A18;}
</style>
<g>
	<linearGradient id="SVGID_1_" gradientUnits="userSpaceOnUse" x1="-22.2147" y1="67.7238" x2="463.0125" y2="67.7238">
		<stop  offset="0" style="stop-color:#FFFFFF"/>
		<stop  offset="1" style="stop-color:#8E0054"/>
	</linearGradient>
	<path class="st0" d="M453.5,108.4c2.3-5.2,3.4-10.6,3.4-16c0-51-102.2-92.3-228.3-92.3C139.7,0,62.7,20.5,25,50.5
		c39.3-22.3,103.7-36.8,176.6-36.8c119.7,0,216.7,39.2,216.7,87.6c0,12.1-6.1,23.6-17.1,34.1c9.5-3.7,18.2-7.7,25.9-12.1
		L453.5,108.4z"/>
</g>
<g>
	<linearGradient id="SVGID_2_" gradientUnits="userSpaceOnUse" x1="479.1364" y1="114.8901" x2="-6.0907" y2="114.8901">
		<stop  offset="0" style="stop-color:#FFFFFF"/>
		<stop  offset="1" style="stop-color:#8E0054"/>
	</linearGradient>
	<path class="st1" d="M3.4,74.2C1.2,79.4,0,84.8,0,90.3c0,51,102.2,92.3,228.3,92.3c88.9,0,165.9-20.5,203.6-50.5
		c-39.3,22.3-103.7,36.8-176.6,36.8c-119.7,0-216.7-39.2-216.7-87.6c0-12.1,6.1-23.6,17.1-34.1c-9.5,3.7-18.2,7.7-25.9,12.1
		L3.4,74.2z"/>
</g>
<g>
	<path class="st2" d="M100.9,84c0,2.1,0.1,4.2,0.5,5.9h-5.6l-0.6-3.1H95c-1.9,1.9-5.6,3.7-10.6,3.7c-7,0-10.6-3.5-10.6-7.1
		c0-6,7.4-9.2,20.8-9.2v-0.5c0-2-0.8-5.8-7.9-5.7c-3.3,0-6.6,0.7-9.1,1.8l-1.4-3c2.9-1.3,7.1-2.1,11.4-2.1
		c10.6,0,13.2,5.2,13.2,10.1V84z M94.8,77.3c-6.9-0.1-14.6,0.8-14.6,5.6c0,3,2.7,4.3,5.9,4.3c4.6,0,7.5-2,8.5-4.1
		c0.2-0.5,0.3-1,0.3-1.4V77.3z"/>
	<path class="st2" d="M105.1,85.4c1.9,0.8,5.2,1.7,8.4,1.7c4.5,0,6.6-1.6,6.6-3.7c0-2.1-1.8-3.3-6.4-4.5c-6.3-1.6-9.2-4-9.2-7
		c0-4,4.6-7.2,11.9-7.2c3.5,0,6.6,0.7,8.4,1.5l-1.5,3.2c-1.4-0.6-3.9-1.4-7.1-1.4c-3.7,0-5.7,1.5-5.7,3.4c0,2.1,2,3,6.5,4.2
		c5.9,1.6,9.1,3.7,9.1,7.4c0,4.4-4.8,7.4-12.9,7.4c-3.8,0-7.3-0.7-9.7-1.7L105.1,85.4z"/>
	<path class="st2" d="M128.4,85.4c1.9,0.8,5.2,1.7,8.4,1.7c4.5,0,6.6-1.6,6.6-3.7c0-2.1-1.8-3.3-6.4-4.5c-6.3-1.6-9.2-4-9.2-7
		c0-4,4.6-7.2,11.9-7.2c3.5,0,6.6,0.7,8.4,1.5l-1.5,3.2c-1.4-0.6-3.9-1.4-7.1-1.4c-3.7,0-5.7,1.5-5.7,3.4c0,2.1,2,3,6.5,4.2
		c5.9,1.6,9.1,3.7,9.1,7.4c0,4.4-4.8,7.4-12.9,7.4c-3.8,0-7.3-0.7-9.7-1.7L128.4,85.4z"/>
	<path class="st2" d="M166.6,90.5c-9.3,0-16.6-4.9-16.6-12.7c0-8.3,7.6-13.1,17.1-13.1c9.9,0,16.6,5.2,16.6,12.6
		C183.8,86.5,174.9,90.5,166.6,90.5L166.6,90.5z M166.8,87.1c6,0,10.5-4,10.5-9.6c0-4.2-2.9-9.4-10.4-9.4c-7.4,0-10.6,4.9-10.6,9.6
		C156.4,83,160.7,87.1,166.8,87.1L166.8,87.1z"/>
	<path class="st2" d="M211.4,89c-1.6,0.6-5.3,1.4-9.9,1.4c-10.4,0-17.2-5-17.2-12.6c0-7.6,7.3-13.2,18.6-13.2c3.7,0,7,0.7,8.7,1.3
		l-1.4,3.4c-1.5-0.6-3.9-1.2-7.3-1.2c-7.9,0-12.2,4.2-12.2,9.4c0,5.7,5.1,9.2,12,9.2c3.6,0,5.9-0.6,7.7-1.2L211.4,89z"/>
	<path class="st2" d="M216.8,60.7c-2.4,0-3.9-1.3-3.9-2.9c0-1.6,1.6-2.9,4.1-2.9c2.4,0,4,1.3,4,2.9
		C220.9,59.3,219.4,60.7,216.8,60.7L216.8,60.7z M213.8,89.9V65.2h6.3v24.7H213.8z"/>
	<path class="st2" d="M249.8,84c0,2.1,0.1,4.2,0.5,5.9h-5.6l-0.6-3.1h-0.2c-1.9,1.9-5.6,3.7-10.6,3.7c-7,0-10.6-3.5-10.6-7.1
		c0-6,7.4-9.2,20.8-9.2v-0.5c0-2-0.8-5.8-7.9-5.7c-3.3,0-6.6,0.7-9.1,1.8l-1.4-3c2.9-1.3,7.1-2.1,11.4-2.1
		c10.6,0,13.2,5.2,13.2,10.1V84z M243.7,77.3c-6.9-0.1-14.6,0.8-14.6,5.6c0,3,2.7,4.3,5.9,4.3c4.6,0,7.5-2,8.5-4.1
		c0.2-0.5,0.3-1,0.3-1.4V77.3z"/>
	<path class="st2" d="M262.2,59.3v5.9h9v3.4h-9v13.3c0,3.1,1.2,4.8,4.7,4.8c1.7,0,2.7-0.1,3.6-0.3l0.3,3.4c-1.2,0.3-3.1,0.6-5.6,0.6
		c-2.9,0-5.3-0.7-6.8-1.9c-1.7-1.4-2.4-3.6-2.4-6.5V68.6h-5.4v-3.4h5.4v-4.5L262.2,59.3z"/>
	<path class="st2" d="M276.3,60.7c-2.4,0-3.9-1.3-3.9-2.9c0-1.6,1.6-2.9,4.1-2.9s4,1.3,4,2.9C280.4,59.3,278.8,60.7,276.3,60.7
		L276.3,60.7z M273.3,89.9V65.2h6.3v24.7H273.3z"/>
	<path class="st2" d="M299,90.5c-9.3,0-16.6-4.9-16.6-12.7c0-8.3,7.6-13.1,17.1-13.1c9.9,0,16.6,5.2,16.6,12.6
		C316.2,86.5,307.3,90.5,299,90.5L299,90.5z M299.3,87.1c6,0,10.5-4,10.5-9.6c0-4.2-2.9-9.4-10.4-9.4c-7.4,0-10.6,4.9-10.6,9.6
		C288.8,83,293.1,87.1,299.3,87.1L299.3,87.1z"/>
	<path class="st2" d="M319.2,71.9c0-2.6-0.1-4.6-0.3-6.7h5.6l0.4,4h0.1c1.7-2.3,5.7-4.6,11.4-4.6c4.8,0,12.2,2,12.2,10.5v14.7h-6.3
		V75.7c0-4-2.1-7.3-8-7.3c-4.1,0-7.3,2.1-8.4,4.6c-0.3,0.6-0.4,1.4-0.4,2.1v14.9h-6.3V71.9z"/>
	<path class="st2" d="M352.9,85.4c1.9,0.8,5.2,1.7,8.4,1.7c4.5,0,6.6-1.6,6.6-3.7c0-2.1-1.8-3.3-6.4-4.5c-6.3-1.6-9.2-4-9.2-7
		c0-4,4.6-7.2,11.9-7.2c3.5,0,6.6,0.7,8.4,1.5l-1.5,3.2c-1.4-0.6-3.9-1.4-7.1-1.4c-3.7,0-5.7,1.5-5.7,3.4c0,2.1,2,3,6.5,4.2
		c5.9,1.6,9.1,3.7,9.1,7.4c0,4.4-4.8,7.4-12.9,7.4c-3.8,0-7.3-0.7-9.7-1.7L352.9,85.4z"/>
	<path class="st2" d="M148.8,135.4v-21.3h-4.8v-3.4h4.8v-1.2c0-3.5,1.1-6.6,4.1-8.6c2.4-1.6,5.5-2.3,8.4-2.3c2.3,0,4.1,0.4,5.4,0.7
		l-0.8,3.5c-1-0.3-2.2-0.6-4.1-0.6c-5.3,0-6.7,3.4-6.7,7.1v1.3h8.4v3.4h-8.3v21.3H148.8z"/>
	<path class="st2" d="M177.3,136c-9.3,0-16.6-4.9-16.6-12.7c0-8.3,7.6-13.1,17.1-13.1c9.9,0,16.6,5.2,16.6,12.6
		C194.5,132,185.6,136,177.3,136L177.3,136z M177.6,132.6c6,0,10.5-4,10.5-9.6c0-4.2-2.9-9.4-10.4-9.4c-7.4,0-10.6,4.9-10.6,9.6
		C167.1,128.5,171.4,132.6,177.6,132.6L177.6,132.6z"/>
	<path class="st2" d="M197.5,118.4c0-2.9-0.1-5.4-0.3-7.7h5.5l0.3,4.8h0.2c1.6-3.3,5.4-5.4,9.6-5.4c0.6,0,1.1,0.1,1.7,0.2v4.2
		c-0.7-0.1-1.4-0.1-2.2-0.1c-4.4,0-7.6,2.4-8.4,5.7c-0.1,0.7-0.2,1.4-0.2,2.1v13.2h-6.3L197.5,118.4z"/>
	<path class="st2" d="M244.6,128.7c0,2.5,0.1,4.8,0.3,6.7h-5.6l-0.4-4h-0.1c-1.6,2-5.3,4.6-11.4,4.6c-5.4,0-11.9-2.2-11.9-10.8
		v-14.4h6.3v13.6c0,4.7,2.1,7.9,7.7,7.9c4.2,0,7.1-2.1,8.3-4.1c0.4-0.6,0.6-1.4,0.6-2.3v-15.1h6.3V128.7z"/>
	<path class="st2" d="M250,117.4c0-2.6-0.1-4.6-0.3-6.7h5.5l0.3,4h0.2c1.9-2.3,5.1-4.5,10.9-4.5c4.6,0,8.2,2,9.7,4.9h0.1
		c1.1-1.4,2.5-2.4,3.9-3.2c2.1-1.1,4.3-1.7,7.6-1.7c4.6,0,11.4,2.1,11.4,10.7v14.5h-6.1v-14c0-4.8-2.5-7.6-7.5-7.6
		c-3.6,0-6.4,1.9-7.5,4c-0.3,0.7-0.5,1.5-0.5,2.2v15.3h-6.1v-14.8c0-4-2.4-6.8-7.2-6.8c-3.9,0-6.8,2.2-7.8,4.5
		c-0.4,0.7-0.5,1.4-0.5,2.2v14.9H250V117.4z"/>
</g>
<g>
	<path class="st2" d="M308,110.6c0.8-0.1,1.8-0.2,3-0.2c1.6,0,2.7,0.3,3.4,0.8c0.7,0.4,1.1,1.1,1.1,2c0,0.9-0.3,1.5-1,2
		c-0.8,0.7-2.2,1-3.8,1c-0.5,0-0.9,0-1.3-0.1v3.8H308V110.6z M309.6,115.2c0.3,0.1,0.8,0.1,1.3,0.1c1.9,0,3.1-0.7,3.1-2
		c0-1.3-1.1-1.9-2.9-1.9c-0.7,0-1.2,0.1-1.5,0.1V115.2z"/>
	<path class="st2" d="M319,111.5v1.6h2.3v0.9H319v3.7c0,0.8,0.3,1.3,1.2,1.3c0.4,0,0.7,0,0.9-0.1l0.1,0.9c-0.3,0.1-0.8,0.2-1.4,0.2
		c-0.7,0-1.3-0.2-1.7-0.5c-0.4-0.4-0.6-1-0.6-1.8v-3.7H316v-0.9h1.4v-1.2L319,111.5z"/>
	<path class="st2" d="M323.1,113.2l1.9,4c0.2,0.4,0.4,1,0.6,1.4h0c0.2-0.4,0.3-0.9,0.6-1.4l1.7-4h1.7l-2.4,4.8
		c-1.1,2.3-1.9,3.5-3,4.3c-0.8,0.5-1.6,0.7-2,0.8l-0.4-1c0.4-0.1,0.9-0.3,1.4-0.6c0.4-0.3,1-0.7,1.3-1.4c0.1-0.1,0.1-0.2,0.1-0.3
		c0-0.1,0-0.2-0.1-0.3l-3.2-6.3H323.1z"/>
	<path class="st2" d="M333.5,110.5h1.6v8.4h5.2v1h-6.8V110.5z"/>
	<path class="st2" d="M343.2,111.5v1.6h2.3v0.9h-2.3v3.7c0,0.8,0.3,1.3,1.2,1.3c0.4,0,0.7,0,0.9-0.1l0.1,0.9
		c-0.3,0.1-0.8,0.2-1.4,0.2c-0.7,0-1.3-0.2-1.7-0.5c-0.4-0.4-0.6-1-0.6-1.8v-3.7h-1.4v-0.9h1.4v-1.2L343.2,111.5z"/>
	<path class="st2" d="M354.1,110v8.2c0,0.6,0,1.3,0.1,1.8h-1.4l-0.1-1.2h0c-0.5,0.8-1.5,1.3-3,1.3c-2.1,0-3.8-1.4-3.8-3.4
		c0-2.3,1.8-3.6,3.9-3.6c1.4,0,2.3,0.5,2.7,1h0v-4H354.1z M352.5,115.9c0-0.2,0-0.4-0.1-0.5c-0.2-0.8-1.1-1.4-2.3-1.4
		c-1.7,0-2.6,1.1-2.6,2.6c0,1.4,0.9,2.5,2.6,2.5c1.1,0,2.1-0.6,2.3-1.5c0.1-0.2,0.1-0.3,0.1-0.5V115.9z"/>
</g>
<g>
	<path class="st2" d="M475.1,55.3v1.1h-4v8.8h-1.5v-8.8h-4v-1.1H475.1z M487.8,65.2l-0.6-6.8c0-0.6-0.1-1.3-0.1-2.1h-0.1
		c-0.3,0.6-0.6,1.6-0.9,2.4l-2.7,6.4h-1.8l-2.8-6.6c-0.2-0.6-0.6-1.6-0.9-2.2h-0.1c0,0.7,0,1.4-0.1,2.1l-0.6,6.8h-1.5l0.9-10h2.3
		l2.8,6.4c0.3,0.7,0.6,1.4,0.8,2.1h0.1c0.3-0.7,0.6-1.5,0.8-2l2.8-6.4h2.3l1,10H487.8z"/>
</g>
</svg>
