<?xml version="1.0" standalone="no"?>
<!DOCTYPE svg PUBLIC "-//W3C//DTD SVG 20010904//EN"
 "http://www.w3.org/TR/2001/REC-SVG-20010904/DTD/svg10.dtd">
<svg version="1.0" xmlns="http://www.w3.org/2000/svg"
 width="458.000000pt" height="458.000000pt" viewBox="0 0 458.000000 458.000000"
 preserveAspectRatio="xMidYMid meet">
<metadata>
Created by potrace 1.11, written by Peter Selinger 2001-2013
</metadata>
<g transform="translate(0.000000,458.000000) scale(0.100000,-0.100000)"
fill="#000000" stroke="none">
<path d="M1998 3215 c-2 -1 -52 -5 -113 -9 -60 -4 -121 -8 -135 -10 -14 -3
-52 -7 -85 -10 -33 -4 -71 -8 -85 -10 -14 -2 -47 -7 -73 -11 -27 -4 -57 -8
-67 -10 -9 -2 -35 -6 -56 -9 -21 -4 -81 -16 -134 -27 -52 -11 -108 -23 -124
-26 -139 -24 -476 -145 -631 -227 -99 -52 -237 -137 -231 -143 2 -2 39 14 83
36 239 118 598 223 913 267 19 2 49 6 65 9 17 2 51 7 78 10 26 3 66 7 90 10
49 5 145 13 272 20 109 7 447 7 530 1 33 -3 96 -8 140 -11 137 -11 174 -15
202 -19 16 -3 64 -10 108 -16 642 -86 1189 -323 1369 -594 110 -166 97 -343
-37 -508 -51 -61 -57 -74 -29 -58 9 5 53 25 97 45 44 20 153 77 242 128 190
107 188 105 188 257 0 87 -3 101 -33 164 -71 150 -203 271 -427 392 -211 113
-597 240 -855 279 -14 2 -50 8 -80 14 -30 6 -75 13 -100 16 -25 3 -56 8 -70
10 -14 3 -45 7 -70 9 -25 3 -72 7 -105 11 -186 19 -257 22 -532 23 -166 0
-303 -1 -305 -3z"/>
<path d="M469 2711 c-85 -37 -386 -202 -422 -231 -24 -20 -45 -110 -41 -185 6
-156 124 -323 321 -454 87 -59 306 -169 398 -201 249 -87 481 -148 660 -174
23 -4 52 -9 65 -11 26 -5 222 -31 300 -39 250 -27 926 -28 1065 -2 11 2 54 7
95 11 41 4 82 8 90 10 91 12 128 18 145 21 11 3 36 7 55 10 19 3 42 7 50 9 8
2 31 7 50 10 52 9 198 43 260 60 30 9 62 18 70 20 106 26 320 109 445 172 84
42 245 140 245 149 0 5 -32 -7 -55 -22 -110 -68 -542 -210 -733 -240 -20 -3
-40 -8 -43 -10 -4 -2 -53 -11 -110 -19 -57 -9 -115 -17 -129 -20 -40 -6 -208
-24 -300 -32 -119 -9 -643 -10 -770 0 -122 9 -140 11 -302 33 -160 20 -336 55
-488 95 -63 17 -122 32 -130 34 -98 22 -378 142 -493 211 -73 44 -182 127
-215 163 -141 156 -178 263 -145 413 7 31 22 74 34 95 26 47 91 133 100 133 4
0 9 7 13 15 3 8 4 15 3 14 -1 0 -40 -17 -88 -38z"/>
<path d="M2142 2658 c-17 -17 4 -48 32 -48 29 0 49 22 40 44 -7 19 -54 22 -72
4z"/>
<path d="M2734 2655 c-10 -25 19 -49 51 -41 20 5 26 12 23 29 -4 28 -64 38
-74 12z"/>
<path d="M2593 2623 c-16 -3 -23 -11 -23 -29 0 -19 -5 -24 -24 -24 -20 0 -36
-16 -36 -37 0 -2 12 -3 28 -1 l27 3 3 -91 c2 -76 6 -95 22 -109 26 -23 119
-30 127 -9 7 20 1 24 -37 29 -18 3 -35 7 -39 10 -3 4 -7 42 -8 86 -2 86 -3 85
65 79 16 -1 22 4 22 19 0 18 -6 21 -46 21 -43 0 -45 1 -42 27 3 28 -4 33 -39
26z"/>
<path d="M821 2568 c-51 -9 -56 -12 -47 -34 4 -10 12 -14 24 -9 59 22 136 12
148 -20 8 -21 0 -28 -33 -27 -15 0 -53 -6 -84 -15 -46 -12 -60 -21 -74 -47
-15 -27 -15 -36 -6 -55 25 -47 122 -62 184 -29 12 6 22 5 32 -6 8 -8 23 -12
34 -9 16 4 19 15 20 80 1 42 -3 91 -10 110 -18 56 -89 79 -188 61z m122 -127
c14 -2 7 -59 -9 -72 -24 -20 -104 -18 -118 4 -8 12 -8 22 0 34 12 20 71 42 99
38 11 -2 23 -4 28 -4z"/>
<path d="M1155 2575 c-5 -2 -22 -6 -38 -9 -36 -8 -67 -40 -67 -70 0 -23 36
-47 117 -76 38 -14 48 -34 26 -55 -12 -13 -31 -16 -81 -13 -72 3 -94 -12 -42
-30 44 -16 139 -6 170 16 54 41 30 100 -52 123 -24 7 -51 19 -61 27 -16 14
-16 16 0 34 14 16 26 18 69 13 41 -6 52 -4 57 9 6 16 0 18 -65 30 -13 2 -27 3
-33 1z"/>
<path d="M1375 2573 c-61 -12 -86 -33 -90 -76 -3 -21 37 -55 74 -64 43 -10 81
-33 81 -48 0 -31 -71 -45 -125 -25 -20 8 -27 7 -32 -6 -9 -25 11 -36 74 -39
58 -3 120 14 135 38 14 21 9 63 -9 79 -10 9 -42 23 -71 33 -90 29 -81 70 15
70 35 0 58 5 60 12 6 16 -70 34 -112 26z"/>
<path d="M1617 2565 c-148 -38 -149 -204 -1 -245 89 -25 208 20 221 83 l6 29
12 -28 c27 -64 95 -95 194 -89 70 4 76 7 68 30 -5 12 -17 14 -55 9 -94 -11
-160 42 -140 113 12 45 56 67 136 65 47 -1 62 2 62 13 0 22 -17 27 -86 27 -83
-1 -142 -28 -172 -79 -16 -28 -22 -33 -22 -18 -2 69 -119 116 -223 90z m121
-46 c58 -36 48 -132 -18 -159 -75 -31 -153 19 -144 94 8 70 96 106 162 65z"/>
<path d="M2311 2568 c-52 -9 -53 -10 -45 -32 4 -11 13 -15 27 -10 61 19 132 9
143 -21 9 -22 2 -26 -57 -31 -59 -4 -138 -38 -140 -60 -1 -8 -2 -20 -3 -26
-10 -64 119 -100 191 -53 19 13 23 13 23 1 0 -8 13 -16 30 -18 l30 -5 0 77 c0
105 -8 137 -39 159 -31 22 -100 30 -160 19z m130 -127 c10 -1 2 -51 -11 -66
-17 -20 -77 -30 -106 -16 -26 12 -32 42 -11 60 16 12 85 29 107 25 8 -1 18 -3
21 -3z"/>
<path d="M2975 2573 c-11 -2 -38 -11 -60 -19 -103 -38 -111 -169 -13 -220 44
-23 152 -24 195 -1 75 40 98 126 48 186 -33 38 -113 64 -170 54z m94 -56 c8
-7 19 -25 26 -40 28 -66 -17 -122 -97 -122 -42 0 -53 4 -74 28 -26 30 -31 75
-13 108 23 44 118 59 158 26z"/>
<path d="M3340 2570 c-19 -4 -45 -12 -58 -19 -19 -10 -23 -9 -28 4 -3 8 -18
15 -33 15 l-26 0 3 -125 c2 -69 6 -125 10 -126 43 -5 52 -4 53 5 1 6 3 40 4
76 1 36 3 73 4 82 2 26 47 51 89 50 58 -2 72 -28 72 -127 0 -88 6 -98 53 -87
15 4 17 15 14 96 -4 91 -16 129 -47 142 -34 14 -77 20 -110 14z"/>
<path d="M3615 2570 c-99 -21 -113 -96 -24 -129 16 -6 42 -16 58 -22 36 -13
45 -33 25 -54 -17 -17 -70 -20 -108 -5 -21 8 -27 6 -36 -10 -9 -17 -5 -20 32
-31 86 -23 180 10 186 65 5 37 -11 52 -79 77 -32 12 -63 27 -69 34 -23 28 60
56 102 34 13 -7 20 -4 28 11 9 16 7 20 -12 24 -51 10 -74 12 -103 6z"/>
<path d="M2147 2563 c-2 -5 -3 -62 -3 -128 l1 -119 30 0 30 0 3 127 3 127 -30
0 c-16 0 -32 -3 -34 -7z"/>
<path d="M2740 2447 c0 -111 2 -125 18 -129 43 -12 47 1 47 127 l0 120 -32 3
-33 3 0 -124z"/>
<path d="M1581 2230 c-43 -10 -81 -48 -85 -86 -2 -23 -9 -30 -30 -32 -14 -2
-26 -6 -26 -10 0 -13 17 -33 26 -31 26 5 29 -7 29 -103 l0 -103 30 0 30 0 5
105 5 105 35 0 c25 0 36 5 38 18 3 16 -23 23 -65 18 -17 -2 -16 40 1 64 10 14
25 19 55 18 34 -1 41 2 41 18 0 10 -6 19 -14 19 -8 0 -20 2 -28 4 -7 2 -28 0
-47 -4z"/>
<path d="M1707 2106 c-49 -18 -67 -34 -84 -75 -26 -62 6 -128 76 -158 78 -33
199 -7 237 52 21 32 20 96 -2 130 -9 14 -31 33 -48 42 -40 21 -131 25 -179 9z
m134 -36 c22 -12 46 -57 44 -85 -2 -53 -59 -98 -111 -89 -91 15 -124 95 -65
155 23 23 38 29 71 29 23 0 50 -5 61 -10z"/>
<path d="M1991 2111 c-7 -5 -11 -50 -10 -129 0 -112 2 -122 19 -122 45 0 50 9
50 89 0 92 10 110 68 121 l42 7 1 -66 c1 -36 4 -77 8 -91 16 -57 128 -81 196
-41 34 20 35 20 35 1 0 -15 6 -19 28 -17 l29 2 -1 123 -1 122 -32 0 -33 0 0
-83 c0 -93 -9 -110 -68 -126 -23 -7 -37 -5 -61 10 -31 19 -31 19 -31 107 l0
89 -57 6 c-46 5 -66 2 -95 -13 -29 -15 -38 -17 -38 -6 0 16 -32 27 -49 17z"/>
<path d="M2603 2100 c-30 -18 -37 -18 -34 3 0 4 -14 7 -31 7 l-33 0 0 -125 0
-125 33 2 32 2 0 82 c0 102 16 129 79 129 62 0 71 -16 73 -124 l2 -92 31 3 30
3 3 87 c3 80 5 89 29 108 29 23 51 25 87 9 30 -14 36 -34 36 -131 l0 -76 33 1
32 2 -1 92 c-2 111 -15 137 -76 153 -49 14 -98 6 -130 -20 -23 -18 -23 -18
-44 1 -31 29 -111 34 -151 9z"/>
<path d="M3089 2094 c-3 -70 -1 -86 11 -79 5 3 7 12 4 19 -4 9 5 16 24 21 31
6 49 32 34 47 -5 5 -23 10 -40 13 -28 3 -32 1 -33 -21z m59 -6 c-7 -19 -45
-22 -45 -3 0 9 9 15 25 15 14 0 22 -5 20 -12z"/>
<path d="M3530 2102 c0 -13 -8 -18 -27 -17 -23 0 -29 -5 -31 -27 -4 -35 -29
-37 -29 -3 0 13 3 22 8 19 14 -8 10 6 -5 21 -12 12 -16 12 -26 0 -7 -8 -8 -15
-3 -15 5 0 9 -10 8 -22 -3 -32 13 -50 34 -38 9 5 23 5 30 1 23 -14 61 0 62 23
0 11 2 33 3 49 1 16 -3 27 -11 27 -7 0 -13 -8 -13 -18z m0 -53 c0 -12 -7 -19
-19 -19 -22 0 -34 23 -19 38 15 15 38 3 38 -19z"/>
<path d="M3185 2098 c-12 -31 -1 -73 20 -75 11 -2 14 0 8 3 -7 3 -13 17 -13
31 0 31 20 26 40 -11 13 -23 13 -28 0 -36 -8 -5 -11 -12 -7 -16 16 -16 73 64
64 89 -2 7 -10 -1 -18 -16 l-13 -28 -13 25 c-8 14 -22 26 -32 26 -11 0 -21 6
-24 13 -3 8 -7 7 -12 -5z"/>
<path d="M3342 2063 c3 -40 6 -47 25 -48 12 -1 28 2 35 7 9 5 4 8 -13 8 -20 0
-26 5 -26 23 -1 46 -3 57 -14 57 -6 0 -9 -19 -7 -47z"/>
</g>
</svg>
